PathFileType	4	(X/Y/Z)	 s05c0102.trc
DataRate	CameraRate	NumFrames	NumMarkers	Units	OrigDataRate	OrigDataStartFrame	OrigNumFrames
200	200	7	50	mm	200	1751	2000
Frame#	Time	racr			lacr			c7			jug			rlel			rdr			llel			ldr			s2			lic			ric			lasi			rasi			rpsi			lpsi			rgt			lgt			rth1			rth2			rth3			rth4			rlfc			rmfc			rsh1			rsh2			rsh3			rsh4			rlmal			rmmal			rcal			rtoe			rmt5			lth1			lth2			lth4			lth3			llfc			lmfc			lsh1			lsh2			lsh3			lsh4			llmal			lmmal			lcal			ltoe			lmt5			SBIKE			LBIKE			RBIKE			
		X1	Y1	Z1	X2	Y2	Z2	X3	Y3	Z3	X4	Y4	Z4	X5	Y5	Z5	X6	Y6	Z6	X7	Y7	Z7	X8	Y8	Z8	X9	Y9	Z9	X10	Y10	Z10	X11	Y11	Z11	X12	Y12	Z12	X13	Y13	Z13	X14	Y14	Z14	X15	Y15	Z15	X16	Y16	Z16	X17	Y17	Z17	X18	Y18	Z18	X19	Y19	Z19	X20	Y20	Z20	X21	Y21	Z21	X22	Y22	Z22	X23	Y23	Z23	X24	Y24	Z24	X25	Y25	Z25	X26	Y26	Z26	X27	Y27	Z27	X28	Y28	Z28	X29	Y29	Z29	X30	Y30	Z30	X31	Y31	Z31	X32	Y32	Z32	X33	Y33	Z33	X34	Y34	Z34	X35	Y35	Z35	X36	Y36	Z36	X37	Y37	Z37	X38	Y38	Z38	X39	Y39	Z39	X40	Y40	Z40	X41	Y41	Z41	X42	Y42	Z42	X43	Y43	Z43	X44	Y44	Z44	X45	Y45	Z45	X46	Y46	Z46	X47	Y47	Z47	X48	Y48	Z48	X49	Y49	Z49	X50	Y50	Z50	
1751	8.7550	484.510502	1276.660270	-145.516214	500.738187	1289.085104	-393.601728	474.943393	1354.825588	-272.937563	412.081231	1208.126129	-280.685170	511.779687	1060.512232	27.977409	692.488952	919.853554	-62.212679	486.198557	1060.013107	-575.350534	683.384383	935.404093	-457.552644	-99.496773	1177.743346	-295.504973	53.557637	1181.539919	-434.128901	38.337942	1207.275643	-151.789227	99.931875	1129.487634	-393.493448	82.455329	1146.921250	-173.598503	-67.623646	1228.102556	-258.142781	-59.540107	1223.842625	-343.751463	7.398709	1097.293298	-112.793618	-10.892744	1070.949799	-451.290318	109.436829	1046.326453	-94.051428	197.477101	1031.402930	-86.571842	263.575845	973.378396	-79.504666	212.882616	1060.866221	-103.305361	382.585097	883.461045	-95.173694	377.305301	870.049936	-205.488472	292.263660	820.788081	-73.591175	249.245098	744.132294	-85.445258	177.451422	698.007307	-91.671418	274.608302	723.583187	-105.637868	92.792818	596.094841	-101.427258	123.171062	610.739848	-179.142604	25.331995	625.989668	-148.349241	196.326040	384.275470	-149.975683	113.372781	445.447864	-84.997506	76.996404	948.659313	-462.530610	146.991139	899.285188	-454.426964	174.795864	920.917292	-440.930879	181.982155	815.985517	-446.402055	258.141253	694.262168	-408.471912	232.587620	679.564240	-305.854826	223.154725	573.016958	-442.032027	234.006913	487.141706	-431.225286	200.751673	404.881207	-435.198446	262.314969	485.891234	-405.428164	191.135690	286.042813	-431.966246	205.901886	315.422578	-358.729317	130.391504	243.921936	-392.080996	425.354465	228.228527	-391.410603	318.774627	202.479994	-456.648315	-213.998811	914.242180	-269.675435	-43.464405	84.859382	-475.147174	-51.749126	80.247544	-77.595608	
1752	8.7600	484.362674	1277.640904	-144.384966	501.711918	1289.552805	-392.195912	475.546869	1355.339109	-271.802419	412.460733	1208.731267	-279.463261	512.225747	1061.060893	28.211147	692.654660	920.285217	-62.314101	488.401351	1061.288065	-575.108006	684.255520	934.896492	-457.361625	-97.852297	1178.699769	-297.973578	55.975671	1181.670341	-435.545874	37.754175	1209.318933	-153.306851	99.774460	1128.310401	-391.541651	82.370887	1148.977474	-174.871245	-66.714586	1229.419365	-261.026386	-58.020266	1224.693781	-346.646796	7.760251	1101.420546	-113.875119	-9.581492	1070.737599	-452.161121	110.110528	1051.865017	-95.077670	198.310138	1038.527640	-87.759446	265.318284	981.787365	-79.742160	213.116145	1067.805141	-105.289364	385.817411	892.718744	-95.525619	380.391619	879.804518	-206.504410	295.994718	829.628980	-73.934832	253.303658	752.794439	-85.569776	181.887438	706.027161	-91.558238	278.629083	732.220806	-105.747106	97.575935	603.545267	-101.601239	127.693821	618.672023	-179.238008	29.210919	632.149176	-148.562258	201.963351	392.104231	-152.308168	120.801423	453.382699	-84.963543	75.385608	946.979754	-463.211101	144.057341	895.853629	-455.170589	172.461127	916.798721	-441.825106	176.881828	811.626782	-446.823639	250.787923	689.220500	-408.904296	224.168045	674.295159	-306.468230	215.873514	567.882346	-442.933192	226.694906	481.974047	-432.153685	193.489740	399.753868	-436.285362	255.103953	480.676485	-406.195324	184.514772	280.860211	-432.907054	199.132578	309.591066	-359.831098	123.317830	239.297648	-393.411836	418.116242	219.849050	-390.819383	311.678475	195.428448	-456.813311	-214.015068	914.294640	-269.691186	-43.475812	84.865415	-475.153147	-51.756606	80.269326	-77.593262	
1753	8.7650	484.219149	1278.733231	-143.438429	502.552976	1289.963177	-390.811477	476.046573	1355.779714	-270.784407	412.845453	1209.209461	-278.213239	512.290161	1061.737122	28.290254	692.760827	920.737973	-62.413317	490.674686	1062.620654	-574.970614	685.162811	934.250998	-457.396250	-96.665599	1179.698898	-300.239064	58.196988	1181.797955	-436.881990	36.966463	1211.487310	-154.792543	101.378779	1128.455699	-392.238707	82.196587	1151.010055	-176.162553	-66.024994	1230.920017	-263.610164	-56.568416	1225.588663	-349.599399	7.888541	1105.548416	-114.849637	-8.469841	1070.600254	-452.919493	110.500637	1057.285119	-96.079684	199.047115	1045.471948	-88.761301	266.854030	989.929558	-80.177787	213.207466	1074.527702	-107.353208	389.087256	901.829155	-96.020882	384.019673	887.606277	-206.575565	299.657806	838.143204	-74.566396	257.871278	761.065946	-85.090717	186.335051	713.804356	-91.494441	282.798713	740.648439	-106.131038	102.641798	610.482476	-101.866432	132.878763	626.216773	-179.070098	33.551375	637.945935	-148.670771	211.960279	402.131278	-150.894391	129.229593	461.071232	-84.883677	73.757862	945.787940	-463.870149	141.096041	893.053096	-455.986686	170.073621	913.274816	-442.745631	171.926013	808.006881	-447.485321	243.736165	684.571785	-409.300512	216.052165	669.792339	-307.037738	208.845803	563.259137	-443.973478	219.552824	477.411912	-433.084296	186.302294	395.106959	-437.384078	247.761323	475.932472	-406.908823	177.798092	276.304927	-433.957738	192.174003	304.359272	-360.881579	116.035166	235.375057	-394.952961	410.491368	211.842041	-390.084429	304.293694	188.947596	-456.972725	-214.273224	914.268445	-269.242221	-43.478425	84.911069	-475.135366	-51.743775	80.298658	-77.584223	
1754	8.7700	484.022040	1279.649554	-142.452013	503.249089	1290.242399	-389.532729	476.472861	1356.130878	-269.845069	413.077779	1209.631901	-277.022906	512.437949	1062.365950	28.392344	692.853874	921.201309	-62.496230	492.419334	1063.568440	-574.936339	686.276183	933.758517	-457.430766	-96.062193	1181.145883	-304.166889	60.202529	1181.829666	-437.966040	36.136546	1213.488781	-156.175709	102.937278	1128.636275	-392.963298	81.968673	1152.979809	-177.324211	-65.442850	1232.361307	-266.113396	-55.023953	1225.972956	-352.130651	7.667669	1109.266782	-116.236414	-7.459710	1070.626056	-453.560691	110.797764	1062.465210	-97.096333	199.461685	1052.020598	-90.497425	268.247283	997.758813	-80.830750	213.117984	1081.028315	-109.514399	391.518011	910.356702	-96.357927	387.286661	895.684368	-207.314521	303.259643	846.330304	-75.329327	262.089300	768.934548	-85.608812	190.774285	721.228837	-91.742185	287.053312	748.701453	-106.717849	107.975910	616.765989	-102.136610	137.295567	632.931250	-179.846487	38.232317	643.061748	-148.794077	221.337440	410.430700	-151.527392	137.438399	467.925003	-84.860395	72.190431	945.149471	-464.677139	138.331919	890.811593	-456.936411	167.713421	910.382693	-443.628030	167.187778	805.122252	-448.391912	236.739664	680.422225	-409.859350	208.343375	665.855453	-307.616845	202.023270	559.189459	-445.003676	212.574400	473.328262	-434.035871	179.247925	390.993916	-438.553174	240.600934	471.842523	-407.674006	170.977727	272.297492	-434.987148	185.070341	299.758909	-361.859447	108.444357	232.335055	-396.608038	402.503040	204.203289	-389.322857	296.533803	183.064810	-457.160872	-214.384420	914.369624	-269.148656	-43.492470	84.919341	-475.142223	-51.760837	80.302612	-77.595267	
1755	8.7750	483.843400	1280.451697	-141.416619	504.001633	1290.373301	-388.353061	476.775358	1356.366124	-268.973386	413.496744	1209.803040	-275.864514	512.508606	1062.987695	28.471114	692.868887	921.830050	-62.475479	495.054245	1064.808897	-574.881008	687.373026	933.083936	-457.623665	-95.232948	1181.900651	-303.732725	62.085182	1181.970412	-438.982883	35.369031	1215.331149	-157.944828	104.194210	1128.822887	-393.419751	81.540505	1154.823932	-178.336678	-65.209954	1233.623749	-268.811432	-53.971162	1226.561144	-354.254848	7.227456	1112.595826	-117.463623	-6.562415	1070.764651	-454.217555	110.939741	1067.441943	-98.096923	199.848407	1058.231404	-92.039411	269.420009	1005.238783	-81.762039	212.900533	1087.135155	-111.646657	394.815962	919.189837	-97.947171	389.959820	904.026039	-208.276908	306.858025	854.244890	-76.271308	266.263544	776.229649	-86.476773	195.432288	727.951607	-92.159157	291.378314	756.173901	-107.536440	113.657434	622.462813	-102.463559	142.128036	638.846818	-180.088464	43.287034	647.439073	-148.869219	230.691744	418.300072	-151.539401	145.438671	474.237572	-84.982974	70.865292	944.957788	-465.523609	135.857467	889.211717	-457.997705	165.537664	908.094879	-444.451498	162.704641	802.951759	-449.514657	230.324998	676.905057	-410.388741	201.164185	662.440300	-308.156551	195.666928	555.728860	-445.999428	205.803562	469.890312	-434.937382	172.254354	387.779821	-439.872491	233.640019	468.315439	-408.327226	163.940036	269.042529	-436.155658	177.865774	295.821691	-362.743390	100.678117	229.993588	-398.247156	394.181204	197.050362	-388.678544	288.450059	177.647408	-457.387479	-214.419843	914.391708	-269.153613	-43.484394	84.958218	-475.150833	-51.773274	80.298448	-77.595701	
1756	8.7800	483.623313	1281.222443	-140.689250	504.648265	1290.318874	-387.148314	477.058492	1356.515338	-268.191351	413.771342	1209.944065	-274.825137	512.438953	1063.639113	28.605429	692.851318	922.460037	-62.474582	497.157542	1065.786778	-574.974402	688.329012	932.425091	-457.654696	-94.636554	1182.757214	-305.987674	63.732328	1182.198627	-439.987319	34.389209	1217.118202	-159.482032	105.145621	1128.764618	-393.758263	81.050494	1156.648001	-179.353204	-65.859016	1235.223864	-271.453666	-52.551490	1227.474637	-356.978294	6.569407	1115.506119	-118.556504	-5.818804	1071.166787	-454.750453	110.983404	1071.896738	-99.182733	199.939397	1064.033766	-93.600277	270.314970	1012.070032	-83.079218	212.487148	1092.831022	-113.672195	397.235135	927.607979	-99.177721	392.346657	912.232909	-209.484320	310.455025	861.612814	-77.365332	270.536765	783.132593	-87.535685	200.291749	734.097022	-92.822969	295.858783	763.334419	-108.522040	119.625821	627.559040	-102.734223	148.374681	644.538638	-180.393019	48.626422	651.011922	-148.856367	240.442177	425.606497	-151.697634	154.293632	479.980236	-84.990695	69.804250	945.164923	-466.412939	133.923859	888.238754	-459.144614	163.636980	906.500811	-445.116646	159.035662	801.335451	-450.881821	224.355822	673.840857	-410.963815	194.555548	659.597622	-308.521539	189.675900	553.024078	-446.937774	199.211652	467.189605	-435.798841	165.368384	385.172523	-441.256603	226.771767	465.366407	-408.941963	156.696336	266.412184	-437.354923	170.604482	292.579330	-363.512093	92.811312	228.393676	-399.806171	385.543322	190.308609	-388.141193	280.007630	172.715315	-457.630605	-214.441355	914.350186	-269.124736	-43.497724	84.951204	-475.157791	-51.765467	80.304542	-77.598833	
1757	8.7850	483.396280	1281.809697	-139.887387	505.215764	1290.173497	-386.085842	477.259422	1356.539661	-267.494419	414.038001	1209.926667	-273.826120	512.243331	1064.112732	28.839594	692.829291	923.024925	-62.445591	499.041883	1066.456647	-575.053016	689.316171	931.692073	-457.738384	-94.392558	1183.725350	-308.001166	65.146051	1182.395770	-440.918627	33.555977	1218.677082	-161.133005	105.960690	1128.838326	-394.057868	80.514711	1158.516825	-180.252399	-66.105855	1236.503802	-273.762275	-51.636553	1228.280702	-358.929769	5.760480	1117.883357	-119.647524	-5.017296	1071.536988	-455.406085	110.783731	1075.780252	-100.480530	199.935204	1069.122606	-95.130243	271.014289	1018.339157	-84.545184	211.964566	1097.991155	-115.532792	399.423298	935.808634	-100.800938	395.272371	920.486421	-211.974453	313.910576	868.523023	-78.782136	274.609581	789.626810	-89.164185	205.299203	739.597567	-93.620748	300.487011	770.110718	-109.619670	125.939910	631.779828	-102.927945	154.259636	649.098558	-180.554507	54.601102	654.081100	-148.513030	250.683814	432.328013	-151.698236	163.524519	485.071997	-84.922394	69.030397	945.754186	-467.181094	132.283379	887.760433	-460.144505	162.131202	905.420573	-445.618283	156.023816	800.420222	-452.475015	219.148523	671.402189	-411.445862	188.715619	657.373674	-308.764613	184.013099	551.095371	-447.748109	192.891955	465.120349	-436.718980	158.501804	383.435008	-442.668936	220.054087	463.124638	-409.634684	149.269411	264.456459	-438.437082	163.330648	290.063538	-364.144244	84.698912	227.562159	-401.226914	376.650680	184.205010	-387.628950	271.302983	168.492013	-457.848501	-214.440505	914.346967	-269.187455	-43.512622	84.973320	-475.149779	-51.775876	80.307896	-77.597340	
